<svg width="16" height="16" viewBox="0 0 16 16" fill="none" xmlns="http://www.w3.org/2000/svg">
<g clip-path="url(#clip0_214_9368)">
<path d="M4.66683 7.33334V8.66668H11.3335V7.33334H4.66683ZM8.00016 1.33334C4.31683 1.33334 1.3335 4.31668 1.3335 8.00001C1.3335 11.6833 4.31683 14.6667 8.00016 14.6667C11.6835 14.6667 14.6668 11.6833 14.6668 8.00001C14.6668 4.31668 11.6835 1.33334 8.00016 1.33334ZM8.00016 13.3333C5.06016 13.3333 2.66683 10.94 2.66683 8.00001C2.66683 5.06001 5.06016 2.66668 8.00016 2.66668C10.9402 2.66668 13.3335 5.06001 13.3335 8.00001C13.3335 10.94 10.9402 13.3333 8.00016 13.3333Z" fill="#008998"/>
</g>
<defs>
<clipPath id="clip0_214_9368">
<rect width="16" height="16" fill="white"/>
</clipPath>
</defs>
</svg>
